# xmcd
#
# Track frame offsets:
# 150
# 16877
# 30615
# 46741
# 61431
# 77772
# 91997
# 111177
# 122926
# 140831
# 152064
# 167179
# 183349
# 195326
# 210233
# 224701
# 243649
# 256994
# 276909
# 298222
# 313394
#
# Disc length: 4560 seconds
#
#
# Revision: 0
# Processed by: cddbd v1.5.1PL0 Copyright (c) Steve Scherf et al.
# Submitted via: FreeRIP 2.941 
#
DISCID=3f11ce15
DTITLE=Jools Holland  and his All Star band - More Friends
DYEAR=2001
DGENRE=Blues
TTITLE0=Sam Moore and Sam Brown - Together We Are Strong
TTITLE1=Norah Jones - In The Dark
TTITLE2=Edwin Starr - Snow Flake Boogie
TTITLE3=Bryan Ferry - The Only Face
TTITLE4=Dionne Warwick - What Goes Around
TTITLE5=Tom Jones - Don't You Kiss On My Cheek
TTITLE6=Chrissie Hynde - Out Of This World
TTITLE7=The Blind Boys Of Alabama - Rock Me
TTITLE8=Stereophonics - First Time I Ever Saw Your Face
TTITLE9=Huey - Fly Me To The Moon
TTITLE10=Badly Drawn Boy - The Can Is Open
TTITLE11=Jools Holland - Tuxedo Junction
TTITLE12=Robert Plant - Let The Boogie Woogie Roll
TTITLE13=Jeef Back - Drown In My Own Tears
TTITLE14=Ruby Turner - Count Me In
TTITLE15=Marianne Faithfull - You Got To Serve Somebody
TTITLE16=Jools Holland - Anglegrinder Blues
TTITLE17=Beverly Knight - Change Is Gonna Come
TTITLE18=George Benson - Teardrops From My Eyes
TTITLE19=Jimmy Cliff - Dreams
TTITLE20=Bono - If You Wear That Velvet Dress
EXTD=
EXTT0=
EXTT1=
EXTT2=
EXTT3=
EXTT4=
EXTT5=
EXTT6=
EXTT7=
EXTT8=
EXTT9=
EXTT10=
EXTT11=
EXTT12=
EXTT13=
EXTT14=
EXTT15=
EXTT16=
EXTT17=
EXTT18=
EXTT19=
EXTT20=
PLAYORDER=
